<svg width="68" height="74" viewBox="0 0 68 74" fill="none" xmlns="http://www.w3.org/2000/svg">
<g filter="url(#filter0_d_645_2245)">
<rect opacity="0.5" x="4" y="6" width="60" height="60" rx="15" fill="url(#paint0_linear_645_2245)"/>
<g style="mix-blend-mode:darken" opacity="0.5">
<path fill-rule="evenodd" clip-rule="evenodd" d="M55 7.15431V55C55 57.7614 52.7614 60 50 60H18C15.2386 60 13 57.7614 13 55V6.76969C14.4945 6.27043 16.0937 6 17.7561 6H49.2195C51.2682 6 53.221 6.41072 55 7.15431Z" fill="#737090"/>
</g>
<rect x="16" width="36" height="54" rx="5" fill="#1CA86D"/>
<g filter="url(#filter1_d_645_2245)">
<path d="M46.6338 19.8963L46.4204 20.0195L46.6337 19.8963C45.9499 18.7116 44.8605 18.1224 43.5979 17.9287C42.4232 17.7484 41.0905 17.908 39.7632 18.2421C39.5698 17.1468 39.1984 15.8483 38.4893 14.7885C37.713 13.6282 36.5268 12.75 34.751 12.75C33.3835 12.75 32.3289 13.3971 31.53 14.3919C30.7866 15.3176 30.2586 16.5498 29.884 17.8656C28.839 17.4874 27.5278 17.1606 26.2542 17.2457C24.8601 17.3388 23.5051 17.928 22.6172 19.4687C21.9335 20.6533 21.9669 21.891 22.4293 23.0808C22.8595 24.1879 23.6629 25.2616 24.6154 26.2433C23.7641 26.9584 22.8256 27.9301 22.2625 29.0749C21.646 30.3281 21.4784 31.7955 22.3664 33.3337C23.0503 34.5184 24.1396 35.1076 25.4015 35.3013C26.5756 35.4816 27.9071 35.322 29.232 34.9879C29.4277 36.083 29.8003 37.3816 30.5101 38.4416C31.287 39.6017 32.4732 40.48 34.2491 40.48C35.6168 40.48 36.6713 39.8314 37.4701 38.8354C38.2134 37.9086 38.7414 36.6753 39.1159 35.3596C40.1631 35.7399 41.4746 36.0668 42.7477 35.9817C44.1412 35.8886 45.4948 35.2993 46.3827 33.7613C47.0665 32.5792 47.0331 31.3428 46.5708 30.1537C46.1405 29.0471 45.3371 27.9733 44.3844 26.9916C45.2357 26.2743 46.1744 25.3013 46.7376 24.1557C47.354 22.9019 47.5216 21.4345 46.6338 19.8963ZM27.183 26.2644C26.8612 25.9531 26.5505 25.6324 26.2563 25.301C25.4866 24.4338 24.8662 23.5336 24.5409 22.681C24.2166 21.8307 24.1953 21.057 24.572 20.4023C25.0654 19.5466 25.9013 19.2372 26.8529 19.2221C27.7343 19.208 28.6821 19.4497 29.4582 19.7203C29.1224 21.5722 29.0176 23.441 29.0176 24.7891L29.2676 25.0391H30.2661L30.5161 24.7891C30.5161 23.5882 30.7106 21.8255 31.1384 20.1088C31.2491 19.6711 31.3756 19.2344 31.5174 18.8145L31.5177 18.8136C31.884 17.7146 32.3541 16.7279 32.93 16.0206C33.5044 15.3151 34.1633 14.9108 34.9165 14.9108C35.9061 14.9108 36.5937 15.4803 37.0834 16.2963C37.5368 17.0522 37.8014 17.9928 37.9537 18.7989C36.1784 19.4339 34.5059 20.2786 33.3384 20.9581L33.2482 21.3002L33.75 22.16L34.0911 22.2504C35.1241 21.653 36.7494 20.9396 38.4555 20.4537L38.4573 20.4531C38.8892 20.3266 39.3245 20.2166 39.7582 20.1334L39.7582 20.1334L39.7612 20.1328C40.8974 19.9006 41.988 19.8128 42.8891 19.957C43.7879 20.1008 44.4678 20.4688 44.8443 21.1231L44.8444 21.1233C45.338 21.9794 45.1893 22.8583 44.7282 23.6901C44.3009 24.4609 43.6188 25.1615 42.9952 25.6997C41.5556 24.4823 39.9885 23.4582 38.8217 22.7842L38.4802 22.8755L37.9836 23.7348L38.0748 24.0762C39.1078 24.6745 40.5438 25.7296 41.811 26.965L41.8132 26.9672C42.1383 27.2764 42.4483 27.6024 42.7437 27.9345L42.7438 27.9346C43.5133 28.799 44.1337 29.6979 44.4589 30.5498C44.7832 31.3993 44.8046 32.1729 44.428 32.8276C43.932 33.6834 43.0945 33.9929 42.1424 34.008C41.2604 34.022 40.3126 33.7804 39.5365 33.5097C39.8723 31.6579 39.9771 29.789 39.9771 28.441L39.7271 28.191H38.734L38.484 28.441C38.484 29.6419 38.2893 31.4046 37.8614 33.1213C37.7509 33.5585 37.6247 33.99 37.4828 34.4104L37.4825 34.4113C37.1161 35.5103 36.6459 36.4984 36.0699 37.207C35.4953 37.9139 34.8364 38.3193 34.0836 38.3193C33.094 38.3193 32.4064 37.7498 31.9167 36.9337C31.4632 36.1779 31.1985 35.2373 31.0462 34.4312C32.8215 33.796 34.489 32.9514 35.6563 32.272L35.747 31.9308L35.2504 31.0711L34.9092 30.9795C33.8707 31.5772 32.2451 32.2906 30.5445 32.7765L30.5436 32.7767C30.1056 32.9035 29.6702 33.0136 29.2364 33.0967L29.2364 33.0967L29.2333 33.0973C28.0999 33.3295 27.0107 33.4173 26.1103 33.2732C25.2122 33.1294 24.5323 32.7613 24.1558 32.107L24.1556 32.1068C23.662 31.2507 23.8106 30.3718 24.2718 29.54C24.6992 28.7692 25.3813 28.0687 26.0049 27.5305C27.4439 28.7477 29.0061 29.7719 30.1788 30.4462L30.5199 30.3546L31.0165 29.4953L30.9248 29.1535C29.8869 28.5557 28.4562 27.5007 27.1833 26.2647L27.183 26.2644Z" fill="white" stroke="white" stroke-width="0.5" stroke-linecap="round" stroke-linejoin="bevel"/>
<path d="M34.5002 24.7014C33.4435 24.7014 32.5869 25.5576 32.5869 26.6145C32.5869 27.6713 33.4436 28.528 34.5002 28.528C35.5566 28.528 36.4133 27.6713 36.4133 26.6145C36.4133 25.5575 35.5566 24.7014 34.5002 24.7014Z" fill="white"/>
</g>
</g>
<defs>
<filter id="filter0_d_645_2245" x="0" y="0" width="68" height="74" filterUnits="userSpaceOnUse" color-interpolation-filters="sRGB">
<feFlood flood-opacity="0" result="BackgroundImageFix"/>
<feColorMatrix in="SourceAlpha" type="matrix" values="0 0 0 0 0 0 0 0 0 0 0 0 0 0 0 0 0 0 127 0" result="hardAlpha"/>
<feOffset dy="4"/>
<feGaussianBlur stdDeviation="2"/>
<feComposite in2="hardAlpha" operator="out"/>
<feColorMatrix type="matrix" values="0 0 0 0 0 0 0 0 0 0 0 0 0 0 0 0 0 0 0.25 0"/>
<feBlend mode="normal" in2="BackgroundImageFix" result="effect1_dropShadow_645_2245"/>
<feBlend mode="normal" in="SourceGraphic" in2="effect1_dropShadow_645_2245" result="shape"/>
</filter>
<filter id="filter1_d_645_2245" x="17.5" y="12.5" width="34" height="36.23" filterUnits="userSpaceOnUse" color-interpolation-filters="sRGB">
<feFlood flood-opacity="0" result="BackgroundImageFix"/>
<feColorMatrix in="SourceAlpha" type="matrix" values="0 0 0 0 0 0 0 0 0 0 0 0 0 0 0 0 0 0 127 0" result="hardAlpha"/>
<feOffset dy="4"/>
<feGaussianBlur stdDeviation="2"/>
<feComposite in2="hardAlpha" operator="out"/>
<feColorMatrix type="matrix" values="0 0 0 0 0 0 0 0 0 0 0 0 0 0 0 0 0 0 0.25 0"/>
<feBlend mode="normal" in2="BackgroundImageFix" result="effect1_dropShadow_645_2245"/>
<feBlend mode="normal" in="SourceGraphic" in2="effect1_dropShadow_645_2245" result="shape"/>
</filter>
<linearGradient id="paint0_linear_645_2245" x1="34" y1="6" x2="34" y2="66" gradientUnits="userSpaceOnUse">
<stop stop-color="#1CA86D"/>
<stop offset="1" stop-color="#BCFAD4"/>
</linearGradient>
</defs>
</svg>
