<svg width="68" height="74" viewBox="0 0 68 74" fill="none" xmlns="http://www.w3.org/2000/svg">
<g filter="url(#filter0_d_644_2136)">
<rect opacity="0.5" x="4" y="6" width="60" height="60" rx="15" fill="url(#paint0_linear_644_2136)"/>
<g style="mix-blend-mode:darken" opacity="0.5">
<path fill-rule="evenodd" clip-rule="evenodd" d="M55 7.15431V55C55 57.7614 52.7614 60 50 60H18C15.2386 60 13 57.7614 13 55V6.76969C14.4945 6.27043 16.0937 6 17.7561 6H49.2195C51.2682 6 53.221 6.41072 55 7.15431Z" fill="#737090"/>
</g>
<rect x="16" width="36" height="54" rx="5" fill="#D1105A"/>
<g filter="url(#filter1_d_644_2136)">
<path d="M42.7806 18.1912L41.2225 20.1881C41.1608 20.2647 41.0829 20.3266 40.9944 20.3694C40.9059 20.4122 40.8089 20.4348 40.7106 20.4356H38.5731C38.4585 20.4335 38.3463 20.4026 38.2469 20.3456L37.4425 19.8787C37.3359 19.8155 37.2133 19.7846 37.0896 19.7896C36.9658 19.7945 36.8461 19.8353 36.745 19.9068L35.5356 20.7731C35.4277 20.8489 35.299 20.8895 35.1672 20.8895C35.0353 20.8895 34.9067 20.8489 34.7987 20.7731L32.3912 19.125C32.3194 19.0747 32.2584 19.0104 32.212 18.936C32.1655 18.8616 32.1345 18.7786 32.1209 18.692C32.1072 18.6054 32.1112 18.5169 32.1325 18.4318C32.1538 18.3467 32.1921 18.2668 32.245 18.1968L35.5187 13.9725" fill="white" stroke="white" stroke-width="1.6875" stroke-miterlimit="10" stroke-linecap="round"/>
<path d="M35.0744 32.2088C40.2127 32.2088 44.3781 28.0433 44.3781 22.905C44.3781 17.7667 40.2127 13.6013 35.0744 13.6013C29.9361 13.6013 25.7706 17.7667 25.7706 22.905C25.7706 28.0433 29.9361 32.2088 35.0744 32.2088Z" stroke="white" stroke-width="1.6875" stroke-miterlimit="10" stroke-linecap="round"/>
<path d="M43.6581 31.815C41.3637 34.0719 38.2715 35.3323 35.0531 35.3224C31.8348 35.3126 28.7504 34.0332 26.4698 31.7623C24.1893 29.4914 22.8969 26.4124 22.8734 23.1942C22.8499 19.9759 24.0972 16.8783 26.3444 14.5744" stroke="white" stroke-width="1.6875" stroke-miterlimit="10" stroke-linecap="round"/>
<path d="M27.3063 28.0294L30.3606 25.4194C30.4688 25.3248 30.6052 25.2685 30.7486 25.2594C30.892 25.2502 31.0344 25.2887 31.1538 25.3688L32.515 26.3025C32.606 26.3661 32.712 26.4047 32.8225 26.4146C32.9331 26.4244 33.0442 26.4052 33.145 26.3588L35.2263 24.9525C35.3309 24.9034 35.4469 24.8837 35.5619 24.8956C35.6769 24.9075 35.7864 24.9505 35.8788 25.02L38.1288 26.3194C38.1975 26.3713 38.2552 26.4363 38.2984 26.5108C38.3416 26.5853 38.3696 26.6676 38.3806 26.753C38.3916 26.8384 38.3854 26.9251 38.3625 27.0081C38.3395 27.0911 38.3002 27.1687 38.2469 27.2363L36.9306 29.52C36.8431 29.6315 36.7214 29.7111 36.5842 29.7467C36.447 29.7823 36.3019 29.7718 36.1713 29.7169L34.1294 29.1544C34.0363 29.1152 33.9354 29.0983 33.8346 29.1052C33.7339 29.112 33.6361 29.1423 33.5492 29.1937C33.4622 29.2451 33.3885 29.3162 33.334 29.4011C33.2794 29.4861 33.2456 29.5827 33.235 29.6831L32.9988 31.9725" fill="white"/>
<path d="M27.3063 28.0294L30.3606 25.4194C30.4688 25.3248 30.6052 25.2685 30.7486 25.2594C30.892 25.2502 31.0344 25.2887 31.1538 25.3688L32.515 26.3025C32.606 26.3661 32.712 26.4047 32.8225 26.4146C32.9331 26.4244 33.0442 26.4052 33.145 26.3588L35.2263 24.9525C35.3309 24.9034 35.4469 24.8837 35.5619 24.8956C35.6769 24.9075 35.7864 24.9505 35.8788 25.02L38.1288 26.3194C38.1975 26.3713 38.2552 26.4363 38.2984 26.5108C38.3416 26.5853 38.3696 26.6676 38.3806 26.753C38.3916 26.8384 38.3854 26.9251 38.3625 27.0081C38.3395 27.0911 38.3002 27.1687 38.2469 27.2363L36.9306 29.52C36.8431 29.6315 36.7214 29.7111 36.5842 29.7467C36.447 29.7823 36.3019 29.7718 36.1713 29.7169L34.1294 29.1544C34.0363 29.1152 33.9354 29.0983 33.8346 29.1052C33.7339 29.112 33.6361 29.1423 33.5492 29.1937C33.4622 29.2451 33.3885 29.3162 33.334 29.4011C33.2794 29.4861 33.2456 29.5827 33.235 29.6831L32.9988 31.9725" stroke="white" stroke-width="1.6875" stroke-miterlimit="10" stroke-linecap="round"/>
<path d="M41.5375 29.5988L45.1319 33.3506" stroke="white" stroke-width="1.6875" stroke-miterlimit="10" stroke-linecap="round"/>
<path d="M28.2512 16.5769L24.6231 12.7687" stroke="white" stroke-width="1.6875" stroke-miterlimit="10" stroke-linecap="round"/>
<path d="M35.0856 36.325V39.3288" stroke="white" stroke-width="1.6875" stroke-miterlimit="10" stroke-linecap="round"/>
<path d="M39.13 41.2312H30.8106C30.7053 41.2316 30.6015 41.2061 30.5084 41.1568C30.4153 41.1075 30.3357 41.0361 30.2768 40.9488C30.2178 40.8615 30.1813 40.761 30.1704 40.6563C30.1595 40.5515 30.1746 40.4457 30.2144 40.3481L31.6262 38.7337C31.6758 38.6147 31.7593 38.5128 31.8663 38.4408C31.9733 38.3688 32.0991 38.3298 32.2281 38.3287H37.7181C37.8465 38.3295 37.9717 38.3684 38.0779 38.4405C38.184 38.5126 38.2664 38.6147 38.3144 38.7337L39.7319 40.3481C39.7703 40.4462 39.7843 40.5521 39.7725 40.6568C39.7607 40.7614 39.7235 40.8616 39.6642 40.9487C39.6049 41.0357 39.5252 41.1069 39.4321 41.1562C39.339 41.2054 39.2353 41.2312 39.13 41.2312Z" stroke="white" stroke-width="1.6875" stroke-miterlimit="10" stroke-linecap="round"/>
</g>
</g>
<defs>
<filter id="filter0_d_644_2136" x="0" y="0" width="68" height="74" filterUnits="userSpaceOnUse" color-interpolation-filters="sRGB">
<feFlood flood-opacity="0" result="BackgroundImageFix"/>
<feColorMatrix in="SourceAlpha" type="matrix" values="0 0 0 0 0 0 0 0 0 0 0 0 0 0 0 0 0 0 127 0" result="hardAlpha"/>
<feOffset dy="4"/>
<feGaussianBlur stdDeviation="2"/>
<feComposite in2="hardAlpha" operator="out"/>
<feColorMatrix type="matrix" values="0 0 0 0 0 0 0 0 0 0 0 0 0 0 0 0 0 0 0.25 0"/>
<feBlend mode="normal" in2="BackgroundImageFix" result="effect1_dropShadow_644_2136"/>
<feBlend mode="normal" in="SourceGraphic" in2="effect1_dropShadow_644_2136" result="shape"/>
</filter>
<filter id="filter1_d_644_2136" x="18.0294" y="11.925" width="31.9462" height="38.15" filterUnits="userSpaceOnUse" color-interpolation-filters="sRGB">
<feFlood flood-opacity="0" result="BackgroundImageFix"/>
<feColorMatrix in="SourceAlpha" type="matrix" values="0 0 0 0 0 0 0 0 0 0 0 0 0 0 0 0 0 0 127 0" result="hardAlpha"/>
<feOffset dy="4"/>
<feGaussianBlur stdDeviation="2"/>
<feComposite in2="hardAlpha" operator="out"/>
<feColorMatrix type="matrix" values="0 0 0 0 0 0 0 0 0 0 0 0 0 0 0 0 0 0 0.25 0"/>
<feBlend mode="normal" in2="BackgroundImageFix" result="effect1_dropShadow_644_2136"/>
<feBlend mode="normal" in="SourceGraphic" in2="effect1_dropShadow_644_2136" result="shape"/>
</filter>
<linearGradient id="paint0_linear_644_2136" x1="34" y1="6" x2="34" y2="66" gradientUnits="userSpaceOnUse">
<stop stop-color="#D1105A"/>
<stop offset="1" stop-color="#FE8BA2"/>
</linearGradient>
</defs>
</svg>
