<svg width="68" height="74" viewBox="0 0 68 74" fill="none" xmlns="http://www.w3.org/2000/svg">
<g filter="url(#filter0_d_645_2272)">
<rect opacity="0.5" x="4" y="6" width="60" height="60" rx="15" fill="url(#paint0_linear_645_2272)"/>
<g style="mix-blend-mode:darken" opacity="0.5">
<path fill-rule="evenodd" clip-rule="evenodd" d="M55 7.15431V55C55 57.7614 52.7614 60 50 60H18C15.2386 60 13 57.7614 13 55V6.76969C14.4945 6.27043 16.0937 6 17.7561 6H49.2195C51.2682 6 53.221 6.41072 55 7.15431Z" fill="#737090"/>
</g>
<rect x="16" width="36" height="54" rx="5" fill="#A40A02"/>
<g filter="url(#filter1_d_645_2272)">
<path d="M23.7801 14.1095C23.5742 14.3798 23.4141 14.6897 23.3184 14.9995C23.254 15.2033 23.1937 15.5152 23.1937 15.6338C23.1937 15.6899 23.1833 15.7066 23.1313 15.7274C22.8443 15.8459 22.653 16.3907 22.653 17.0915C22.653 17.2538 22.6447 17.3016 22.6135 17.3453C22.4471 17.5823 22.3785 17.8444 22.3743 18.254L22.3702 18.566L22.3057 18.6679C22.2017 18.8259 22.1664 19.011 22.1643 19.4123C22.1622 19.6744 22.1539 19.77 22.131 19.8075C21.9896 20.032 21.9646 20.4209 22.0603 20.8493L22.1144 21.0926L22.0561 21.2632C22.0042 21.4212 22 21.4607 22 21.7477C22.0021 22.0201 22.0083 22.0867 22.0582 22.2655C22.1144 22.4693 22.1144 22.4714 22.0769 22.5774C22.0499 22.6565 22.0395 22.7438 22.0416 22.9122C22.0416 23.1202 22.0478 23.1576 22.1102 23.3178C22.1705 23.4737 22.1788 23.5216 22.1851 23.7233C22.1913 23.9728 22.2288 24.1641 22.3099 24.3575C22.3577 24.4698 22.3598 24.4906 22.339 24.5884C22.2932 24.8026 22.3681 25.0979 22.5261 25.337C22.5823 25.4223 22.6135 25.4971 22.6322 25.599C22.6717 25.8132 22.7694 26.1023 22.8401 26.2146C22.8734 26.2687 22.9025 26.3394 22.9025 26.3685C22.9025 26.5785 23.0585 26.9237 23.2207 27.0755C23.3039 27.1525 23.3288 27.192 23.3434 27.2668C23.3746 27.4311 23.4432 27.5434 23.6304 27.7285C23.7551 27.8512 23.8196 27.9323 23.8383 27.9885C23.9194 28.2401 24.117 28.4834 24.3104 28.5728C24.3936 28.6102 24.4206 28.6352 24.4206 28.6685C24.4206 28.812 24.6431 29.0573 24.8823 29.1759C24.9717 29.2216 25.0486 29.2819 25.1235 29.3672C25.2483 29.5107 25.3772 29.6064 25.5061 29.6521C25.554 29.6687 25.6392 29.727 25.6975 29.781C25.9616 30.0285 26.2215 30.1574 26.5605 30.2032C26.6873 30.2219 26.7414 30.2406 26.8371 30.3051C27.201 30.5484 27.9309 30.6191 28.6172 30.4798C29.0164 30.3987 29.5343 30.2115 29.8108 30.0451C29.8795 30.0056 29.9418 29.9744 29.946 29.9807C29.9585 29.9931 29.8358 30.3529 29.7817 30.459C29.7256 30.5692 29.5925 30.7647 29.5114 30.8582C29.476 30.8978 29.4531 30.9352 29.4594 30.9414C29.4656 30.9497 29.5197 30.9539 29.5779 30.9539C29.684 30.9539 29.684 30.9539 29.6465 30.9997C29.6278 31.0225 29.4469 31.2097 29.2452 31.4156C29.0456 31.6194 28.8979 31.7816 28.9187 31.7733C28.9686 31.7566 29.1599 31.7046 29.2306 31.6901C29.2993 31.6734 29.3034 31.7067 29.2473 31.8211C29.2057 31.9001 28.9894 32.1143 28.952 32.1143C28.9395 32.1143 28.9374 32.1247 28.9457 32.1372C28.9707 32.1767 29.1475 32.2453 29.2618 32.2578L29.372 32.2703L29.2681 32.4075C29.2119 32.4824 29.1308 32.5988 29.0913 32.6675C29.0164 32.7902 29.0164 32.7902 29.0643 32.8047C29.0892 32.811 29.1599 32.8172 29.2223 32.8193C29.3117 32.8214 29.3305 32.8276 29.3201 32.8525C29.3138 32.8692 29.2327 32.9898 29.1412 33.1208C29.0123 33.3059 28.9541 33.4099 28.8917 33.5804C28.8355 33.7343 28.7731 33.8507 28.6879 33.9714C28.6192 34.0649 28.5257 34.2147 28.4778 34.302C28.3801 34.4808 28.2616 34.5994 28.0598 34.7179L27.9288 34.7949L27.8727 34.7553C27.8415 34.7346 27.7063 34.616 27.5691 34.4933C27.0409 34.0192 26.8558 33.9693 26.5334 34.2126C26.4607 34.2687 26.392 34.3186 26.3796 34.327C26.3692 34.3332 26.3338 34.2958 26.3026 34.2438C26.234 34.1273 25.8285 33.6178 25.5727 33.3308C25.2878 33.0064 25.0445 32.7756 24.8116 32.6072C24.5953 32.4491 24.0733 32.1143 24.0463 32.1143C24.0172 32.1143 23.9797 32.1746 23.9964 32.1996C24.0047 32.212 24.0567 32.2848 24.1128 32.3576C24.169 32.4325 24.2376 32.5385 24.2667 32.5947C24.3146 32.6903 24.4622 33.1853 24.4622 33.2518C24.4622 33.2726 24.4081 33.2789 24.2189 33.2789C23.8363 33.2789 23.3164 33.4078 23.3018 33.5034C23.2956 33.5367 23.3101 33.5554 23.3538 33.5721C23.7177 33.7218 24.0089 33.9048 24.2397 34.1294C24.4227 34.3062 24.6078 34.5474 24.9717 35.0881C25.425 35.7556 25.4978 35.8367 25.6517 35.8367C25.7411 35.8367 26.024 35.6766 26.209 35.5227L26.3484 35.4042L26.5272 35.5851L26.704 35.7639L26.6936 35.9241C26.679 36.1341 26.6998 36.2589 26.7622 36.3337C26.8163 36.3982 26.9722 36.4814 27.0409 36.4814C27.0637 36.4814 27.0949 36.5063 27.1136 36.5417C27.1532 36.6186 27.2301 36.6789 27.3258 36.7122C27.3673 36.7247 27.4235 36.7621 27.4505 36.7954C27.4776 36.8266 27.542 36.8786 27.5961 36.9077C27.6772 36.9576 27.7063 36.9638 27.802 36.9534C27.8644 36.9472 27.9621 36.9202 28.0203 36.8931L28.1285 36.8432L28.4529 37.0387C28.9624 37.3444 29.6403 37.6771 30.1706 37.8788C30.2621 37.9142 30.339 37.9454 30.3432 37.9475C30.3557 37.9579 30.1997 38.301 29.9377 38.8354C29.7817 39.1536 29.659 39.4198 29.6673 39.426C29.6861 39.4468 30.1519 39.399 30.2954 39.3616C30.4888 39.3117 30.7092 39.1952 30.8485 39.0642C30.992 38.9332 30.9941 38.9415 30.886 39.1807C30.8069 39.3595 30.6572 39.5654 30.5553 39.6361C30.4617 39.7005 30.4493 39.7317 30.5179 39.7172C30.5449 39.7109 30.626 39.7005 30.7009 39.6943C31.071 39.659 31.4641 39.5051 31.6845 39.3096C31.749 39.2514 31.8031 39.2056 31.8031 39.2118C31.8031 39.216 31.7511 39.3304 31.6887 39.4635C31.6263 39.5966 31.5743 39.7151 31.5743 39.7297C31.5743 39.7609 31.8426 39.7359 32.0443 39.6818C32.3458 39.6028 32.6224 39.4302 32.8532 39.1807L32.9905 39.0288L32.9364 39.1848C32.9052 39.2701 32.8428 39.4198 32.7992 39.5134C32.716 39.6922 32.5434 39.9542 32.508 39.9542C32.4976 39.9542 32.4893 39.9626 32.4893 39.975C32.4893 39.9875 32.5746 39.9958 32.7035 39.9958C33.2671 39.9958 33.7703 39.7234 33.9887 39.3054L34.0615 39.164L34.1218 39.295C34.2153 39.4905 34.4483 39.7151 34.6728 39.8253C34.9182 39.9459 35.0555 39.9792 35.3674 39.9896L35.6336 40L35.5379 39.8835C35.4277 39.7484 35.305 39.5134 35.2011 39.241C35.1615 39.1391 35.1304 39.0538 35.1304 39.0496C35.1304 39.0455 35.2177 39.1287 35.3237 39.2347C35.5379 39.451 35.7209 39.5695 35.9663 39.6506C36.1265 39.7047 36.5112 39.765 36.5361 39.7421C36.5424 39.7338 36.4966 39.6153 36.4322 39.476C36.3677 39.3366 36.3157 39.2181 36.3157 39.2118C36.3157 39.2056 36.3656 39.2472 36.428 39.3033C36.6464 39.503 37.0498 39.6631 37.4137 39.6943C37.4907 39.7026 37.5759 39.7109 37.6009 39.7172C37.6383 39.7255 37.6154 39.6922 37.5052 39.5841C37.3908 39.4718 37.3409 39.4011 37.2661 39.2451C37.2141 39.137 37.1642 39.0268 37.1558 38.9977C37.1454 38.9519 37.1579 38.9581 37.2432 39.0434C37.4719 39.2638 37.7506 39.3761 38.1748 39.4156C38.3204 39.4281 38.4452 39.4344 38.4514 39.426C38.4597 39.4198 38.3287 39.1349 38.1603 38.7939C37.8359 38.1367 37.7589 37.96 37.786 37.9371C37.7943 37.9288 37.9149 37.8768 38.0521 37.8227C38.5991 37.6064 39.1772 37.3153 39.7179 36.9888L39.9716 36.8349L40.0922 36.8911C40.1608 36.9222 40.2627 36.9514 40.3209 36.9555C40.4166 36.9638 40.4416 36.9555 40.5434 36.8911C40.6079 36.8495 40.6682 36.7975 40.6807 36.7767C40.6932 36.7538 40.7285 36.7288 40.7597 36.7226C40.8471 36.6997 40.9698 36.6145 41.003 36.5479C41.0238 36.5084 41.0592 36.4835 41.1236 36.4668C41.238 36.4336 41.3358 36.3732 41.3815 36.3067C41.4252 36.2381 41.446 35.9407 41.4127 35.8263L41.3898 35.7452L41.5728 35.5747L41.7538 35.4042L41.8473 35.4915C42.0428 35.6724 42.336 35.8367 42.465 35.8367C42.5294 35.8367 42.5565 35.8201 42.6459 35.7265C42.7041 35.6683 42.9058 35.3938 43.093 35.1193C43.7792 34.1169 43.9227 33.9714 44.5175 33.674C44.6797 33.5929 44.7899 33.5242 44.7899 33.5076C44.7899 33.466 44.6818 33.4161 44.4468 33.3496C44.2929 33.308 44.1806 33.2934 43.9331 33.283L43.6191 33.2685L43.6877 33.0023C43.7647 32.6987 43.8396 32.5365 43.9872 32.3431C44.0974 32.1996 44.1141 32.1476 44.06 32.1268C43.9934 32.1018 43.2261 32.6176 42.9599 32.8671C42.6001 33.2019 41.8868 34.0545 41.7309 34.3353C41.7288 34.3394 41.6602 34.2895 41.577 34.2271C41.3358 34.0462 41.186 34.0296 40.9552 34.1544C40.8408 34.2147 40.7576 34.2812 40.3812 34.6139C40.2814 34.7034 40.1878 34.7761 40.1754 34.7761C40.14 34.7761 39.93 34.6472 39.826 34.5619C39.7678 34.5141 39.7033 34.4289 39.6472 34.3207C39.5972 34.2292 39.5016 34.0774 39.435 33.9817C39.3664 33.8861 39.2957 33.7676 39.277 33.7156C39.1813 33.4556 39.0961 33.2893 38.9505 33.0855C38.8632 32.9628 38.7904 32.8525 38.7904 32.8421C38.7904 32.8297 38.8257 32.8214 38.8715 32.8214C38.9817 32.8214 39.0815 32.7985 39.0815 32.7756C39.0815 32.7486 38.9048 32.4782 38.8195 32.3701C38.78 32.3223 38.7488 32.2786 38.7488 32.2723C38.7488 32.2661 38.7841 32.2599 38.8299 32.2599C38.9193 32.2599 39.0503 32.2183 39.1314 32.1663L39.1834 32.1309L39.0836 32.0561C38.9297 31.9375 38.832 31.8044 38.832 31.7109C38.832 31.6776 39.0025 31.7025 39.121 31.7525C39.1585 31.7691 39.2001 31.7816 39.2125 31.7816C39.225 31.7816 39.0566 31.6007 38.8361 31.3781C38.6157 31.1577 38.4369 30.9685 38.4369 30.9601C38.4369 30.9518 38.466 30.9497 38.4992 30.9581C38.5346 30.9643 38.5866 30.9601 38.6157 30.9497L38.6698 30.929L38.5991 30.8499C38.441 30.6752 38.3225 30.4631 38.2289 30.1907C38.1956 30.0992 38.1644 30.0077 38.1561 29.9869C38.1436 29.9557 38.1603 29.962 38.2435 30.0119C38.6323 30.251 39.2396 30.4527 39.7886 30.5255C40.3708 30.6025 41.0238 30.5006 41.2962 30.2926C41.3711 30.2365 41.4169 30.2198 41.5541 30.2011C41.8328 30.1637 42.0491 30.0743 42.2799 29.8996C42.3506 29.8476 42.4275 29.779 42.4504 29.7498C42.4733 29.7186 42.544 29.675 42.6085 29.6479C42.7707 29.5835 42.8788 29.5024 42.989 29.3672C43.0576 29.284 43.1263 29.23 43.2365 29.1738C43.3176 29.1301 43.432 29.0532 43.4881 29.0033C43.5879 28.9139 43.6981 28.7329 43.6981 28.6602C43.6981 28.6352 43.7314 28.6082 43.7917 28.5811C43.9851 28.4959 44.1723 28.2713 44.2617 28.0176C44.2887 27.9427 44.3283 27.8699 44.3532 27.8533C44.3761 27.8366 44.453 27.7639 44.5258 27.6932C44.661 27.5559 44.7795 27.3479 44.7795 27.244C44.7795 27.2045 44.8128 27.1545 44.9001 27.0672C45.0499 26.9175 45.1434 26.7345 45.1892 26.4995C45.21 26.3872 45.2557 26.2541 45.314 26.1356C45.3763 26.0066 45.4221 25.8715 45.4595 25.6989C45.499 25.52 45.5302 25.4244 45.5739 25.362C45.7444 25.1103 45.8193 24.8317 45.7798 24.5988C45.759 24.4823 45.7611 24.4574 45.7985 24.3721C45.8838 24.1787 45.9274 23.9645 45.9274 23.7233C45.9274 23.5382 45.9358 23.48 45.969 23.4155C46.0293 23.2949 46.0896 23.0349 46.0896 22.8935C46.0896 22.7688 46.0522 22.5899 46.0127 22.5192C45.9981 22.4943 46.0085 22.4319 46.0418 22.3133C46.152 21.9307 46.152 21.494 46.0418 21.2195L45.994 21.103L46.0439 20.9159C46.1021 20.6871 46.1271 20.265 46.0917 20.0944C46.0792 20.032 46.0439 19.9281 46.0127 19.8657C45.9607 19.7575 45.9565 19.7326 45.9545 19.4186C45.9503 18.9964 45.89 18.7386 45.7611 18.593C45.7361 18.5639 45.732 18.5223 45.7424 18.3934C45.7694 18.0481 45.6883 17.651 45.5386 17.4035C45.472 17.2912 45.4658 17.2683 45.4658 17.1207C45.4658 16.7318 45.3888 16.2847 45.2848 16.0642C45.2204 15.927 45.0748 15.7648 44.9875 15.7274C44.9396 15.7086 44.9251 15.6878 44.9251 15.6463C44.9251 15.5256 44.8565 15.1867 44.7878 14.9766C44.6797 14.6418 44.4863 14.2862 44.2804 14.045C44.2118 13.9639 44.1827 13.9992 44.1993 14.1386C44.2347 14.3902 44.2451 15.2137 44.2201 15.5277C44.1452 16.4448 43.9248 17.1872 43.5484 17.7944C43.3509 18.1126 42.9121 18.6491 42.5377 19.0276C42.0303 19.5434 41.3524 19.9094 39.8614 20.4792C39.5536 20.5956 39.2437 20.7183 39.1751 20.7474C38.8944 20.8743 38.7384 21.049 38.337 21.6915C37.9586 22.2967 37.8171 22.4527 37.5572 22.5525C37.3513 22.6315 36.9105 22.6211 36.7545 22.5338C36.6859 22.4943 36.6775 22.4755 36.7108 22.4547C36.7586 22.4256 36.7046 22.174 36.6505 22.174C36.636 22.174 36.636 22.1574 36.6505 22.1262C36.6796 22.0596 36.6401 21.9161 36.5819 21.8745C36.5445 21.8475 36.5424 21.8371 36.5652 21.8101C36.5819 21.7893 36.586 21.7498 36.5777 21.6957C36.5715 21.6499 36.5736 21.6125 36.5819 21.6125C36.6172 21.6125 36.7732 21.4628 36.7732 21.4274C36.7732 21.3962 36.7524 21.3921 36.5923 21.4004C36.3573 21.4108 36.2471 21.3817 36.1452 21.2798C36.1015 21.2361 36.0662 21.1924 36.0662 21.182C36.0662 21.1696 36.1223 21.155 36.1888 21.1488C36.3261 21.1363 36.5299 21.0427 36.5403 20.9866C36.5445 20.9595 36.5216 20.9491 36.4342 20.9408C36.2533 20.9179 36.1077 20.8618 36.0204 20.7786C35.9767 20.737 35.9414 20.6934 35.9414 20.6809C35.9414 20.6705 35.9809 20.6538 36.0308 20.6455C36.0786 20.6372 36.1618 20.6122 36.2138 20.5894C36.3178 20.5457 36.453 20.423 36.4322 20.3897C36.4259 20.3793 36.3427 20.3648 36.2492 20.3606C36.0454 20.3502 35.9393 20.3024 35.8312 20.1776C35.7459 20.0778 35.7168 19.9988 35.7709 20.0217C35.852 20.057 36.1036 20.057 36.2013 20.0258C36.3199 19.9842 36.4841 19.8657 36.5237 19.795C36.5611 19.7243 36.5486 19.716 36.4467 19.7513C36.3469 19.7867 36.1992 19.7679 36.0142 19.6972C35.7542 19.5995 35.6606 19.3645 35.5983 18.6367C35.5816 18.4266 35.5608 18.2208 35.5546 18.1812C35.5338 18.0398 35.4381 17.8111 35.3674 17.7258L35.2946 17.6426L35.3778 17.599C35.4631 17.5574 35.5754 17.4118 35.669 17.2267C35.7293 17.1123 35.7002 17.0749 35.617 17.1519C35.5317 17.2309 35.4132 17.287 35.3341 17.2849C35.2718 17.2849 35.2697 17.2829 35.3134 17.2662C35.434 17.2163 35.5421 17.1207 35.5837 17.0229C35.6294 16.9148 35.6814 16.6174 35.6627 16.5675C35.6419 16.5155 35.6107 16.5363 35.5691 16.632C35.5068 16.7713 35.4049 16.9085 35.3383 16.9439C35.251 16.9897 35.2489 16.9855 35.3237 16.8794L35.3903 16.7838L35.3861 16.5114C35.3841 16.2202 35.3466 16.0289 35.2946 16.0289C35.2738 16.0289 35.2614 16.0642 35.251 16.1474C35.2239 16.3637 35.1179 16.5488 34.9723 16.634C34.781 16.7463 34.4857 16.7692 33.5707 16.7401C33.1756 16.7255 32.9905 16.7276 32.9177 16.7443C32.7534 16.7838 32.5933 16.8711 32.4706 16.9897C32.4082 17.05 32.3541 17.0999 32.3521 17.0999C32.35 17.0999 32.3375 17.0708 32.3229 17.0354C32.298 16.9772 32.298 16.9252 32.3292 16.5821C32.3375 16.4947 32.2897 16.5114 32.1503 16.6507C32.0505 16.7463 32.0068 16.8087 31.9902 16.8711L31.9673 16.9564L31.8925 16.9002C31.8322 16.8545 31.7989 16.8441 31.7053 16.8462C31.5535 16.8482 31.5286 16.8732 31.6076 16.9481L31.6679 17.0063L31.5119 17.0167C31.358 17.0292 31.2145 17.0832 31.2145 17.1311C31.2145 17.1415 31.2624 17.1581 31.3227 17.1664C31.4599 17.1872 31.5722 17.2413 31.5306 17.2683C31.514 17.2787 31.4828 17.287 31.4599 17.287C31.3871 17.2891 31.2478 17.364 31.148 17.4555C31.096 17.5033 31.0586 17.547 31.0648 17.5532C31.071 17.5595 31.1813 17.5657 31.3102 17.5657C31.4558 17.5678 31.5577 17.5782 31.5847 17.5927C31.6263 17.6177 31.6242 17.6198 31.5764 17.6322C31.487 17.6572 31.1709 17.8194 30.9754 17.94C30.6572 18.1376 30.5179 18.3102 30.4409 18.6075C30.4097 18.7323 30.3931 19.117 30.4201 19.1586C30.443 19.1961 30.4701 19.1815 30.5116 19.1004C30.5595 19.0089 30.7321 18.8384 30.8735 18.7448C31.1168 18.5805 31.383 18.514 31.7719 18.516C31.9632 18.516 32.2668 18.5556 32.2938 18.5826C32.3001 18.5888 32.2439 18.6367 32.1711 18.6887C31.8322 18.9299 31.5514 18.9528 31.2665 18.7573C31.2104 18.7198 31.1688 18.7032 31.1563 18.7157C31.1334 18.7386 31.1792 18.8841 31.2312 18.9569C31.279 19.0255 31.2686 19.038 31.1979 19.0006C31.1106 18.9569 31.0877 18.984 31.1251 19.0921C31.1896 19.2751 31.3393 19.4415 31.5057 19.5163C31.7053 19.6057 31.9486 19.587 32.2876 19.4581C32.533 19.3624 32.6723 19.3375 32.7763 19.3645C32.9385 19.4103 32.9926 19.535 32.9343 19.7409C32.9073 19.8407 32.8823 19.8823 32.8137 19.9405C32.7305 20.0113 32.5683 20.0736 32.3916 20.1048C32.3375 20.1132 32.3021 20.1298 32.3021 20.1464C32.3021 20.1859 32.4228 20.2754 32.5205 20.3086L32.5995 20.3357L32.5267 20.3814C32.4664 20.4188 32.3063 20.4646 32.1004 20.502C32.0734 20.5083 32.0526 20.5249 32.0526 20.5395C32.0526 20.5915 32.2044 20.6975 32.3292 20.7329C32.4456 20.7661 32.4477 20.7682 32.4124 20.8056C32.3625 20.8556 32.1732 20.92 32.0297 20.9367C31.8613 20.9575 31.853 20.9616 31.8987 21.0115C31.959 21.0781 32.1275 21.155 32.2418 21.1696C32.298 21.1758 32.3437 21.1883 32.3437 21.1987C32.3437 21.234 32.1649 21.365 32.0859 21.3858C32.0401 21.3983 31.9216 21.4046 31.8218 21.4004C31.7219 21.3983 31.6325 21.4004 31.6242 21.4108C31.6159 21.4191 31.6429 21.4628 31.6866 21.5065C31.7594 21.5813 31.7635 21.5917 31.7511 21.6811C31.7427 21.7352 31.7448 21.7914 31.7594 21.8163C31.776 21.8496 31.7739 21.86 31.749 21.8704C31.7032 21.887 31.6512 22.0243 31.6637 22.0991C31.67 22.1366 31.6616 22.1782 31.6471 22.1948C31.6325 22.2114 31.6097 22.2613 31.5972 22.3071C31.5805 22.3716 31.5826 22.4007 31.6076 22.4506C31.6388 22.5067 31.6388 22.5109 31.6076 22.5005C31.5889 22.4922 31.4911 22.5109 31.3913 22.54C31.0419 22.6419 30.6905 22.6294 30.4472 22.5046C30.3058 22.4319 30.1228 22.226 29.9314 21.9286C29.4927 21.2382 29.3949 21.1009 29.2514 20.9658C29.0851 20.8098 28.9936 20.762 28.4965 20.5727C26.9681 19.9925 26.3712 19.6972 25.8118 19.246C25.5061 19.0006 24.9135 18.3185 24.6161 17.8693C24.2522 17.3245 24.0338 16.6777 23.9174 15.8001C23.8862 15.5652 23.8799 14.5545 23.907 14.2134C23.9278 13.9577 23.909 13.9431 23.7801 14.1095ZM31.907 32.4928C31.8925 32.6217 31.8779 32.8629 31.8758 33.0293L31.8738 33.3308L31.5452 34.3498C31.3643 34.9092 31.1334 35.6246 31.0315 35.9365C30.9296 36.2485 30.8465 36.5084 30.8465 36.5126C30.8465 36.5188 30.8361 36.523 30.8236 36.523C30.7799 36.523 30.181 36.2422 29.8566 36.0696L29.5197 35.8908L29.5301 35.7723C29.5405 35.6745 29.5343 35.6392 29.4968 35.5809C29.4656 35.5289 29.4531 35.4749 29.4531 35.3813C29.4531 35.3085 29.4407 35.2274 29.422 35.1941C29.3928 35.138 29.266 35.0673 29.1911 35.0673C29.1412 35.0673 29.0164 34.9321 29.0164 34.8801C29.0164 34.8552 29.058 34.7824 29.1079 34.7179C29.1724 34.6368 29.2057 34.5703 29.2161 34.5079C29.2286 34.4268 29.2618 34.3852 29.5239 34.1107C29.6861 33.9402 29.8982 33.7135 29.998 33.6053C30.154 33.4369 30.2039 33.3974 30.3536 33.3246C30.4493 33.2768 30.5699 33.1998 30.6219 33.1541L30.7175 33.0709L30.7508 33.1229C30.7695 33.1499 30.7841 33.1915 30.7841 33.2165C30.7841 33.2393 30.7924 33.2581 30.8028 33.2581C30.8298 33.2581 30.9504 33.1042 31.0399 32.9565C31.0794 32.8879 31.1355 32.811 31.1646 32.7839L31.2145 32.7361L31.2998 32.8671C31.3455 32.9399 31.4059 33.0189 31.4329 33.0459L31.4849 33.0917L31.5098 32.9732C31.5244 32.9066 31.5597 32.7777 31.5889 32.6862C31.6346 32.5406 31.6575 32.5053 31.7781 32.3805C31.853 32.3035 31.9174 32.2432 31.9237 32.2495C31.9299 32.2536 31.9216 32.3638 31.907 32.4928ZM36.3407 32.3805C36.4654 32.5094 36.4841 32.5385 36.532 32.6987C36.5611 32.7943 36.5964 32.9233 36.6089 32.9815C36.6339 33.0875 36.636 33.0896 36.6734 33.0563C36.6963 33.0355 36.7566 32.9565 36.8086 32.8775C36.9209 32.7091 36.9146 32.7091 37.081 32.9669C37.2494 33.2289 37.3347 33.308 37.3347 33.1998C37.3347 33.179 37.3492 33.1416 37.368 33.1167L37.4012 33.0688L37.4927 33.1541C37.5426 33.1998 37.657 33.2726 37.7464 33.3142C37.919 33.3974 37.8962 33.3745 38.5824 34.0961C38.8049 34.3311 38.8944 34.4393 38.8944 34.4746C38.8944 34.5515 38.9297 34.6285 39.0191 34.7408C39.0649 34.7969 39.1023 34.8614 39.1023 34.8822C39.1023 34.9529 39.0067 35.034 38.8715 35.0777C38.6947 35.1338 38.6573 35.1879 38.6552 35.3855C38.6552 35.4936 38.6448 35.5497 38.6178 35.5913C38.5887 35.6329 38.5803 35.6787 38.5845 35.7681L38.5907 35.8887L38.3329 36.0322C38.0605 36.1819 37.4095 36.4939 37.3243 36.5147C37.2765 36.5271 37.2702 36.5105 37.056 35.8534C36.9354 35.4853 36.7004 34.7553 36.5341 34.2355L36.2325 33.2893V32.9981C36.2325 32.734 36.2076 32.4075 36.1805 32.2848C36.1618 32.21 36.1972 32.2308 36.3407 32.3805Z" fill="white"/>
</g>
</g>
<defs>
<filter id="filter0_d_645_2272" x="0" y="0" width="68" height="74" filterUnits="userSpaceOnUse" color-interpolation-filters="sRGB">
<feFlood flood-opacity="0" result="BackgroundImageFix"/>
<feColorMatrix in="SourceAlpha" type="matrix" values="0 0 0 0 0 0 0 0 0 0 0 0 0 0 0 0 0 0 127 0" result="hardAlpha"/>
<feOffset dy="4"/>
<feGaussianBlur stdDeviation="2"/>
<feComposite in2="hardAlpha" operator="out"/>
<feColorMatrix type="matrix" values="0 0 0 0 0 0 0 0 0 0 0 0 0 0 0 0 0 0 0.25 0"/>
<feBlend mode="normal" in2="BackgroundImageFix" result="effect1_dropShadow_645_2272"/>
<feBlend mode="normal" in="SourceGraphic" in2="effect1_dropShadow_645_2272" result="shape"/>
</filter>
<filter id="filter1_d_645_2272" x="18" y="14" width="32.1245" height="34" filterUnits="userSpaceOnUse" color-interpolation-filters="sRGB">
<feFlood flood-opacity="0" result="BackgroundImageFix"/>
<feColorMatrix in="SourceAlpha" type="matrix" values="0 0 0 0 0 0 0 0 0 0 0 0 0 0 0 0 0 0 127 0" result="hardAlpha"/>
<feOffset dy="4"/>
<feGaussianBlur stdDeviation="2"/>
<feComposite in2="hardAlpha" operator="out"/>
<feColorMatrix type="matrix" values="0 0 0 0 0 0 0 0 0 0 0 0 0 0 0 0 0 0 0.25 0"/>
<feBlend mode="normal" in2="BackgroundImageFix" result="effect1_dropShadow_645_2272"/>
<feBlend mode="normal" in="SourceGraphic" in2="effect1_dropShadow_645_2272" result="shape"/>
</filter>
<linearGradient id="paint0_linear_645_2272" x1="34" y1="6" x2="34" y2="66" gradientUnits="userSpaceOnUse">
<stop stop-color="#A40A02"/>
<stop offset="1" stop-color="#F24B04"/>
</linearGradient>
</defs>
</svg>
