<svg width="68" height="74" viewBox="0 0 68 74" fill="none" xmlns="http://www.w3.org/2000/svg">
<g filter="url(#filter0_d_354_4202)">
<rect opacity="0.5" x="4" y="6" width="60" height="60" rx="15" fill="url(#paint0_linear_354_4202)"/>
<g style="mix-blend-mode:darken" opacity="0.5">
<path fill-rule="evenodd" clip-rule="evenodd" d="M55 7.15431V55C55 57.7614 52.7614 60 50 60H18C15.2386 60 13 57.7614 13 55V6.76969C14.4945 6.27043 16.0937 6 17.7561 6H49.2195C51.2682 6 53.221 6.41072 55 7.15431Z" fill="#737090"/>
</g>
<rect x="16" width="36" height="54" rx="5" fill="#E8523F"/>
<g filter="url(#filter1_d_354_4202)">
<path d="M30.5951 15V17.1166C29.3221 16.6104 27.9571 16.3497 26.592 16.3497C23.8466 16.3497 21.1012 17.3926 19 19.4939L24.1074 24.6012H25.8098V26.3037C27.1288 27.6227 28.8466 28.3129 30.5798 28.3896V31.8712H25.9939V36.4724C25.9939 38.1595 27.3742 39.5399 29.0613 39.5399H44.3988C46.9448 39.5399 49 37.4847 49 34.9387V15H30.5951ZM28.8926 24.8313V21.5337H25.3957L23.8006 19.9387C24.6748 19.6012 25.6258 19.4172 26.592 19.4172C28.6472 19.4172 30.5644 20.2147 32.0215 21.6564L34.184 23.819L33.8773 24.1258C33.0951 24.908 32.0521 25.3528 30.9325 25.3528C30.2117 25.3528 29.5061 25.1687 28.8926 24.8313ZM45.9325 34.9387C45.9325 35.7822 45.2423 36.4724 44.3988 36.4724C43.5552 36.4724 42.865 35.7822 42.865 34.9387V31.8712H33.6626V27.8988C34.5368 27.546 35.3497 27.0245 36.0552 26.319L36.362 26.0123L40.7025 30.3374H42.865V28.1748L33.6626 19.0184V18.0675H45.9325V34.9387Z" fill="white"/>
</g>
</g>
<defs>
<filter id="filter0_d_354_4202" x="0" y="0" width="68" height="74" filterUnits="userSpaceOnUse" color-interpolation-filters="sRGB">
<feFlood flood-opacity="0" result="BackgroundImageFix"/>
<feColorMatrix in="SourceAlpha" type="matrix" values="0 0 0 0 0 0 0 0 0 0 0 0 0 0 0 0 0 0 127 0" result="hardAlpha"/>
<feOffset dy="4"/>
<feGaussianBlur stdDeviation="2"/>
<feComposite in2="hardAlpha" operator="out"/>
<feColorMatrix type="matrix" values="0 0 0 0 0 0 0 0 0 0 0 0 0 0 0 0 0 0 0.25 0"/>
<feBlend mode="normal" in2="BackgroundImageFix" result="effect1_dropShadow_354_4202"/>
<feBlend mode="normal" in="SourceGraphic" in2="effect1_dropShadow_354_4202" result="shape"/>
</filter>
<filter id="filter1_d_354_4202" x="15" y="15" width="38" height="32.5399" filterUnits="userSpaceOnUse" color-interpolation-filters="sRGB">
<feFlood flood-opacity="0" result="BackgroundImageFix"/>
<feColorMatrix in="SourceAlpha" type="matrix" values="0 0 0 0 0 0 0 0 0 0 0 0 0 0 0 0 0 0 127 0" result="hardAlpha"/>
<feOffset dy="4"/>
<feGaussianBlur stdDeviation="2"/>
<feComposite in2="hardAlpha" operator="out"/>
<feColorMatrix type="matrix" values="0 0 0 0 0 0 0 0 0 0 0 0 0 0 0 0 0 0 0.25 0"/>
<feBlend mode="normal" in2="BackgroundImageFix" result="effect1_dropShadow_354_4202"/>
<feBlend mode="normal" in="SourceGraphic" in2="effect1_dropShadow_354_4202" result="shape"/>
</filter>
<linearGradient id="paint0_linear_354_4202" x1="34" y1="6" x2="34" y2="66" gradientUnits="userSpaceOnUse">
<stop stop-color="#F3744C"/>
<stop offset="1" stop-color="#FFFBBB"/>
</linearGradient>
</defs>
</svg>
