<svg width="68" height="74" viewBox="0 0 68 74" fill="none" xmlns="http://www.w3.org/2000/svg">
<g filter="url(#filter0_d_647_2314)">
<rect opacity="0.5" x="4" y="6" width="60" height="60" rx="15" fill="url(#paint0_linear_647_2314)"/>
<g style="mix-blend-mode:darken" opacity="0.5">
<path fill-rule="evenodd" clip-rule="evenodd" d="M55 7.15431V55C55 57.7614 52.7614 60 50 60H18C15.2386 60 13 57.7614 13 55V6.76969C14.4945 6.27043 16.0937 6 17.7561 6H49.2195C51.2682 6 53.221 6.41072 55 7.15431Z" fill="#737090"/>
</g>
<rect x="16" width="36" height="54" rx="5" fill="#F24B04"/>
<g filter="url(#filter1_d_647_2314)">
<path d="M22.8439 22.9375C22.8781 22.9571 24.0756 23.6377 25.0625 23.6377C26.0494 23.6377 27.288 22.9571 27.3235 22.9375H27.7829C28.5264 22.9397 29.125 23.5397 29.125 24.2796V29.4375C29.125 30.335 28.3975 31.0625 27.5 31.0625V37.1562C27.5 37.8294 26.9544 38.375 26.2812 38.375H23.8438C23.1706 38.375 22.625 37.8294 22.625 37.1562V31.0625C21.7275 31.0625 21 30.335 21 29.4375V24.3219C21 23.5588 21.6175 22.9398 22.3844 22.9375H22.8439ZM31.7814 22.9375C31.8156 22.9571 33.0131 23.6377 34 23.6377C34.9869 23.6377 36.2255 22.9571 36.261 22.9375H36.7204C37.4639 22.9397 38.0625 23.5397 38.0625 24.2796V29.4375C38.0625 30.335 37.335 31.0625 36.4375 31.0625V37.1562C36.4375 37.8294 35.8919 38.375 35.2188 38.375H32.7812C32.1081 38.375 31.5625 37.8294 31.5625 37.1562V31.0625C30.665 31.0625 29.9375 30.335 29.9375 29.4375V24.3219C29.9375 23.5588 30.555 22.9398 31.3219 22.9375H31.7814ZM44.1562 38.375H41.7188C41.0456 38.375 40.5 37.8294 40.5 37.1562V31.0625C39.6025 31.0625 38.875 30.335 38.875 29.4375V24.3219C38.875 23.5573 39.4948 22.9375 40.2594 22.9375H40.7189C40.7189 22.9375 41.9365 23.6377 42.9375 23.6377C43.9385 23.6377 45.1985 22.9375 45.1985 22.9375H45.6579C46.3992 22.9375 47 23.5383 47 24.2796V29.4375C47 30.335 46.2725 31.0625 45.375 31.0625V37.1562C45.375 37.8277 44.8321 38.3723 44.1562 38.375ZM25.0625 22.125C26.8574 22.125 28.3125 20.6699 28.3125 18.875C28.3125 17.0801 26.8574 15.625 25.0625 15.625C23.2676 15.625 21.8125 17.0801 21.8125 18.875C21.8125 20.6699 23.2676 22.125 25.0625 22.125ZM34 22.125C35.7949 22.125 37.25 20.6699 37.25 18.875C37.25 17.0801 35.7949 15.625 34 15.625C32.2051 15.625 30.75 17.0801 30.75 18.875C30.75 20.6699 32.2051 22.125 34 22.125ZM46.1875 18.875C46.1875 20.6699 44.7324 22.125 42.9375 22.125C41.1426 22.125 39.6875 20.6699 39.6875 18.875C39.6875 17.0801 41.1426 15.625 42.9375 15.625C44.7324 15.625 46.1875 17.0801 46.1875 18.875Z" fill="white"/>
</g>
</g>
<defs>
<filter id="filter0_d_647_2314" x="0" y="0" width="68" height="74" filterUnits="userSpaceOnUse" color-interpolation-filters="sRGB">
<feFlood flood-opacity="0" result="BackgroundImageFix"/>
<feColorMatrix in="SourceAlpha" type="matrix" values="0 0 0 0 0 0 0 0 0 0 0 0 0 0 0 0 0 0 127 0" result="hardAlpha"/>
<feOffset dy="4"/>
<feGaussianBlur stdDeviation="2"/>
<feComposite in2="hardAlpha" operator="out"/>
<feColorMatrix type="matrix" values="0 0 0 0 0 0 0 0 0 0 0 0 0 0 0 0 0 0 0.25 0"/>
<feBlend mode="normal" in2="BackgroundImageFix" result="effect1_dropShadow_647_2314"/>
<feBlend mode="normal" in="SourceGraphic" in2="effect1_dropShadow_647_2314" result="shape"/>
</filter>
<filter id="filter1_d_647_2314" x="17" y="14" width="34" height="34" filterUnits="userSpaceOnUse" color-interpolation-filters="sRGB">
<feFlood flood-opacity="0" result="BackgroundImageFix"/>
<feColorMatrix in="SourceAlpha" type="matrix" values="0 0 0 0 0 0 0 0 0 0 0 0 0 0 0 0 0 0 127 0" result="hardAlpha"/>
<feOffset dy="4"/>
<feGaussianBlur stdDeviation="2"/>
<feComposite in2="hardAlpha" operator="out"/>
<feColorMatrix type="matrix" values="0 0 0 0 0 0 0 0 0 0 0 0 0 0 0 0 0 0 0.25 0"/>
<feBlend mode="normal" in2="BackgroundImageFix" result="effect1_dropShadow_647_2314"/>
<feBlend mode="normal" in="SourceGraphic" in2="effect1_dropShadow_647_2314" result="shape"/>
</filter>
<linearGradient id="paint0_linear_647_2314" x1="34" y1="6" x2="34" y2="66" gradientUnits="userSpaceOnUse">
<stop stop-color="#F24B04"/>
<stop offset="1" stop-color="#FF930A"/>
</linearGradient>
</defs>
</svg>
