<svg width="68" height="74" viewBox="0 0 68 74" fill="none" xmlns="http://www.w3.org/2000/svg">
<g filter="url(#filter0_d_709_2200)">
<rect opacity="0.5" x="4" y="6" width="60" height="60" rx="15" fill="url(#paint0_linear_709_2200)"/>
<g style="mix-blend-mode:darken" opacity="0.5">
<path fill-rule="evenodd" clip-rule="evenodd" d="M55 7.15431V55C55 57.7614 52.7614 60 50 60H18C15.2386 60 13 57.7614 13 55V6.76969C14.4945 6.27043 16.0937 6 17.7561 6H49.2195C51.2682 6 53.221 6.41072 55 7.15431Z" fill="#737090"/>
</g>
<rect x="16" width="36" height="54" rx="5" fill="#ED8936"/>
<g filter="url(#filter1_d_709_2200)">
<path d="M23.5 19H21V36.5C21 37.875 22.125 39 23.5 39H41V36.5H23.5V19ZM43.5 14H28.5C27.125 14 26 15.125 26 16.5V31.5C26 32.875 27.125 34 28.5 34H43.5C44.875 34 46 32.875 46 31.5V16.5C46 15.125 44.875 14 43.5 14ZM42.25 25.25H29.75V22.75H42.25V25.25ZM37.25 30.25H29.75V27.75H37.25V30.25ZM42.25 20.25H29.75V17.75H42.25V20.25Z" fill="white"/>
</g>
</g>
<defs>
<filter id="filter0_d_709_2200" x="0" y="0" width="68" height="74" filterUnits="userSpaceOnUse" color-interpolation-filters="sRGB">
<feFlood flood-opacity="0" result="BackgroundImageFix"/>
<feColorMatrix in="SourceAlpha" type="matrix" values="0 0 0 0 0 0 0 0 0 0 0 0 0 0 0 0 0 0 127 0" result="hardAlpha"/>
<feOffset dy="4"/>
<feGaussianBlur stdDeviation="2"/>
<feComposite in2="hardAlpha" operator="out"/>
<feColorMatrix type="matrix" values="0 0 0 0 0 0 0 0 0 0 0 0 0 0 0 0 0 0 0.25 0"/>
<feBlend mode="normal" in2="BackgroundImageFix" result="effect1_dropShadow_709_2200"/>
<feBlend mode="normal" in="SourceGraphic" in2="effect1_dropShadow_709_2200" result="shape"/>
</filter>
<filter id="filter1_d_709_2200" x="17" y="14" width="33" height="33" filterUnits="userSpaceOnUse" color-interpolation-filters="sRGB">
<feFlood flood-opacity="0" result="BackgroundImageFix"/>
<feColorMatrix in="SourceAlpha" type="matrix" values="0 0 0 0 0 0 0 0 0 0 0 0 0 0 0 0 0 0 127 0" result="hardAlpha"/>
<feOffset dy="4"/>
<feGaussianBlur stdDeviation="2"/>
<feComposite in2="hardAlpha" operator="out"/>
<feColorMatrix type="matrix" values="0 0 0 0 0 0 0 0 0 0 0 0 0 0 0 0 0 0 0.25 0"/>
<feBlend mode="normal" in2="BackgroundImageFix" result="effect1_dropShadow_709_2200"/>
<feBlend mode="normal" in="SourceGraphic" in2="effect1_dropShadow_709_2200" result="shape"/>
</filter>
<linearGradient id="paint0_linear_709_2200" x1="34" y1="6" x2="34" y2="66" gradientUnits="userSpaceOnUse">
<stop stop-color="#F6AD55"/>
<stop offset="1" stop-color="#FBD38D"/>
</linearGradient>
</defs>
</svg>
