<svg width="68" height="74" viewBox="0 0 68 74" fill="none" xmlns="http://www.w3.org/2000/svg">
<g filter="url(#filter0_d_344_3707)">
<rect opacity="0.5" x="4" y="6" width="60" height="60" rx="15" fill="url(#paint0_linear_344_3707)"/>
<g style="mix-blend-mode:darken" opacity="0.5">
<path fill-rule="evenodd" clip-rule="evenodd" d="M55 7.15431V55C55 57.7614 52.7614 60 50 60H18C15.2386 60 13 57.7614 13 55V6.76969C14.4945 6.27043 16.0937 6 17.7561 6H49.2195C51.2682 6 53.221 6.41072 55 7.15431Z" fill="#737090"/>
</g>
<rect x="16" width="36" height="54" rx="5" fill="#C4342C"/>
<g filter="url(#filter1_d_344_3707)">
<rect x="21.5" y="14.5" width="25" height="25" rx="12.5" fill="white" stroke="url(#paint1_linear_344_3707)"/>
<path d="M22 27C22 20.3726 27.3726 15 34 15C40.6274 15 46 20.3726 46 27H22Z" fill="#B52018"/>
</g>
</g>
<defs>
<filter id="filter0_d_344_3707" x="0" y="0" width="68" height="74" filterUnits="userSpaceOnUse" color-interpolation-filters="sRGB">
<feFlood flood-opacity="0" result="BackgroundImageFix"/>
<feColorMatrix in="SourceAlpha" type="matrix" values="0 0 0 0 0 0 0 0 0 0 0 0 0 0 0 0 0 0 127 0" result="hardAlpha"/>
<feOffset dy="4"/>
<feGaussianBlur stdDeviation="2"/>
<feComposite in2="hardAlpha" operator="out"/>
<feColorMatrix type="matrix" values="0 0 0 0 0 0 0 0 0 0 0 0 0 0 0 0 0 0 0.25 0"/>
<feBlend mode="normal" in2="BackgroundImageFix" result="effect1_dropShadow_344_3707"/>
<feBlend mode="normal" in="SourceGraphic" in2="effect1_dropShadow_344_3707" result="shape"/>
</filter>
<filter id="filter1_d_344_3707" x="17" y="14" width="34" height="34" filterUnits="userSpaceOnUse" color-interpolation-filters="sRGB">
<feFlood flood-opacity="0" result="BackgroundImageFix"/>
<feColorMatrix in="SourceAlpha" type="matrix" values="0 0 0 0 0 0 0 0 0 0 0 0 0 0 0 0 0 0 127 0" result="hardAlpha"/>
<feOffset dy="4"/>
<feGaussianBlur stdDeviation="2"/>
<feComposite in2="hardAlpha" operator="out"/>
<feColorMatrix type="matrix" values="0 0 0 0 0 0 0 0 0 0 0 0 0 0 0 0 0 0 0.25 0"/>
<feBlend mode="normal" in2="BackgroundImageFix" result="effect1_dropShadow_344_3707"/>
<feBlend mode="normal" in="SourceGraphic" in2="effect1_dropShadow_344_3707" result="shape"/>
</filter>
<linearGradient id="paint0_linear_344_3707" x1="34" y1="6" x2="34" y2="66" gradientUnits="userSpaceOnUse">
<stop stop-color="#E8523F"/>
<stop offset="1" stop-color="#F3744C"/>
</linearGradient>
<linearGradient id="paint1_linear_344_3707" x1="34" y1="15" x2="34" y2="39" gradientUnits="userSpaceOnUse">
<stop stop-color="#FDFCFB"/>
<stop offset="1" stop-color="#B52018"/>
</linearGradient>
</defs>
</svg>
