<svg width="182" height="152" viewBox="0 0 182 152" fill="none" xmlns="http://www.w3.org/2000/svg">
<g filter="url(#filter0_f_570_2174)">
<circle cx="63.3081" cy="88.3081" r="44.7656" transform="rotate(-135 63.3081 88.3081)" fill="#D1105A"/>
<path d="M31.6541 56.6541C49.1361 39.172 77.4801 39.172 94.9622 56.6541C94.9622 56.6541 69.4599 43.9647 44.2123 69.2123C18.9647 94.4599 31.6541 119.962 31.6541 119.962C14.172 102.48 14.172 74.1361 31.6541 56.6541Z" fill="#A40A02"/>
<path d="M85.8866 110.887C115.106 81.6674 94.9622 56.6541 94.9622 56.6541C112.444 74.1361 112.444 102.48 94.9622 119.962C77.4801 137.444 49.1361 137.444 31.6541 119.962C31.6541 119.962 56.6674 140.106 85.8866 110.887Z" fill="#FE8BA2"/>
</g>
<line x1="85.0711" y1="5" x2="177" y2="96.9289" stroke="url(#paint0_linear_570_2174)" stroke-width="10" stroke-linecap="round"/>
<defs>
<filter id="filter0_f_570_2174" x="3.54251" y="28.5425" width="119.531" height="119.531" filterUnits="userSpaceOnUse" color-interpolation-filters="sRGB">
<feFlood flood-opacity="0" result="BackgroundImageFix"/>
<feBlend mode="normal" in="SourceGraphic" in2="BackgroundImageFix" result="shape"/>
<feGaussianBlur stdDeviation="7.5" result="effect1_foregroundBlur_570_2174"/>
</filter>
<linearGradient id="paint0_linear_570_2174" x1="175.5" y1="102.5" x2="103" y2="30" gradientUnits="userSpaceOnUse">
<stop stop-color="white"/>
<stop offset="0.0885417" stop-color="white" stop-opacity="0.875"/>
<stop offset="0.359375" stop-color="white" stop-opacity="0.245"/>
<stop offset="1" stop-color="white" stop-opacity="0"/>
</linearGradient>
</defs>
</svg>
