<svg width="296" height="410" viewBox="0 0 296 410" fill="none" xmlns="http://www.w3.org/2000/svg">
<g filter="url(#filter0_f_570_2175)">
<circle cx="194.5" cy="101.5" r="71.5" transform="rotate(-45 194.5 101.5)" fill="#471CA8"/>
<path d="M245.058 50.9419C272.981 78.8644 272.981 124.136 245.058 152.058C245.058 152.058 265.326 111.326 225 71C184.674 30.6744 143.942 50.9419 143.942 50.9419C171.864 23.0194 217.136 23.0194 245.058 50.9419Z" fill="#200655"/>
<path d="M158.438 137.562C205.107 184.231 245.058 152.058 245.058 152.058C217.136 179.981 171.864 179.981 143.942 152.058C116.019 124.136 116.019 78.8644 143.942 50.9419C143.942 50.9419 111.769 90.8934 158.438 137.562Z" fill="#8187F7"/>
</g>
<path d="M179.508 259.007L9.00006 405" stroke="url(#paint0_linear_570_2175)" stroke-width="10" stroke-linecap="round"/>
<defs>
<filter id="filter0_f_570_2175" x="113" y="20" width="163" height="163" filterUnits="userSpaceOnUse" color-interpolation-filters="sRGB">
<feFlood flood-opacity="0" result="BackgroundImageFix"/>
<feBlend mode="normal" in="SourceGraphic" in2="BackgroundImageFix" result="shape"/>
<feGaussianBlur stdDeviation="5" result="effect1_foregroundBlur_570_2175"/>
</filter>
<linearGradient id="paint0_linear_570_2175" x1="-91.8113" y1="287.718" x2="73.9991" y2="143.999" gradientUnits="userSpaceOnUse">
<stop stop-color="white"/>
<stop offset="0.0885417" stop-color="white" stop-opacity="0.875"/>
<stop offset="0.359375" stop-color="white" stop-opacity="0.245"/>
<stop offset="1" stop-color="white" stop-opacity="0"/>
</linearGradient>
</defs>
</svg>
