<svg width="1280" height="684" viewBox="0 0 1280 684" fill="none" xmlns="http://www.w3.org/2000/svg">
<g clip-path="url(#clip0_574_2133)">
<g filter="url(#filter0_f_574_2133)">
<path d="M39 459L0.5 497.5V676H1280.5V0L1229 69V191L1193.5 353.5L1229 371.5H1184L1133 475L1018 407L977 279.5L936.5 248L697.5 292.5L637.5 279.5L415.5 353.5L433.5 448.5L429 459L402.5 353.5L323 307.5L303 48.5L270 5L230 48.5L210 191L189 197.5L140 326L189 353.5L136 330L94.5 371.5L71 469.5L55 475L39 459Z" fill="#50032D"/>
<path d="M14.5 676H0.5L3 498.5L39 463L55.5 477.5L72.5 472L97 373L136 333L191 354L143.5 325L190.5 200L212 192L231.5 49L270 8.5L300.5 49.5L320.5 309.5L400 355.5L262.5 309.5L300 278L286 128L262.5 67L249 92L237.5 246H208.5L188 298L249 361L237.5 383.5L180 373L175.5 391.5L154 399.5L184.127 469.5L334.5 482L188 478.5L154 490L46 544L14.5 676Z" fill="#D34874"/>
<path d="M437 448.5L419.5 355L637.5 281.5L698 295L936 250.5L975.5 281L1016.5 408L1133.5 477.5L1008 419.5L968 289.5L935.5 269.5L699.5 321H650.5L641 355L630 329L491.5 369L437 448.5Z" fill="#D34874"/>
<path d="M1231.5 69.5L1278 8.5V17.5L1250 73L1237.5 191.5L1223.5 343L1267 380.5L1264.5 392L1234 393.5L1226 403.5L1189.5 400.5L1134 477.5L1185.5 373.5L1232 372L1196.5 351L1231.5 191.5V69.5Z" fill="#D34874"/>
<path d="M243 93.5L262 68.5L254 112.5V267H231.5L219.5 284.5H273L207.5 296.5L273 363.5L254 401.5L214 393L210.5 398L258.5 417.5L204.5 408L191.5 417.5L207.5 472.5L107.5 461L115.5 401.5L174.5 390L178.5 371.5L236 382L248.5 363.5L187 296.5L207.5 243H231.5L243 93.5Z" fill="#780045"/>
<path d="M1084.5 528L1188 500.5H1241.5L1266 528H1215.5V546L1188 557L1084.5 528Z" fill="#780045"/>
<path d="M824.5 353.5L857 342L947.5 346L906 357.5H869L852.5 369.5L857 398.5L824.5 353.5Z" fill="#780045"/>
<path d="M1278 50.5V17L1249.5 71.5L1238 183L1226 260L1219 350.5L1274.5 387L1237.5 339.5L1250 259.5L1248.5 201L1252 175L1265.5 187.5L1253 167.5L1258 95.5L1278 50.5Z" fill="#780045"/>
<path d="M549.5 414L484 418.5L490 367L631.5 327L641 351.5L648 315.5L697.5 320L936.5 266.5L969 288L974 304.5L947 291.5L732.5 329.5H656L660 351.5L745.5 349L645 363.5L625 340L532.5 376.5L560.5 394.5L613.5 374.5L549.5 414Z" fill="#780045"/>
<path d="M666.561 463.061C667.146 462.475 667.146 461.525 666.561 460.939L657.015 451.393C656.429 450.808 655.479 450.808 654.893 451.393C654.308 451.979 654.308 452.929 654.893 453.515L663.379 462L654.893 470.485C654.308 471.071 654.308 472.021 654.893 472.607C655.479 473.192 656.429 473.192 657.015 472.607L666.561 463.061ZM565.5 463.5H665.5V460.5H565.5V463.5Z" fill="black"/>
</g>
<g filter="url(#filter1_f_574_2133)">
<path d="M138.5 540.5L0.5 564.5V676H1280.5V633L1008 602L991 556L935 511.5L882.5 519.5L923 503.5L898.5 441L815 363L614.5 377L550.5 416.5L360.5 428.5L275 469.5L138.5 540.5Z" fill="#50032D"/>
<path d="M1 566V630.5L14 584.5L161 580.5L365.5 441L566 432L600.5 406L802 387.5L894 447.5L897.5 494.5L849 523.5L850 530.5L878 528.5L881 534.5L935 533.5L978.5 559.5L987.5 576L949.5 564.5L978.5 578.5L976.5 593L991 597L1005.5 612L1280 640.5V633.5L1008 602.5L991 556.5L935 512L881 520L922.5 503.5L898.5 441.5L815 363.5L614.5 377L550.5 417L360 429L138.5 541L1 566Z" fill="#D34874"/>
<path d="M6 591.5L400 598.5L228 573.5L382 470L470.5 478.5L596 448L697.5 498.5L615 431L796.5 420L896.5 448L802.5 384.5L600.5 403L565.5 431L363.5 439.5L160 573.5L11.5 583L6 591.5Z" fill="#780045"/>
<path d="M413 529.5L436 520.5L735.5 529.5H485H448L431.5 541.5L436 570.5L413 529.5Z" fill="#780045"/>
</g>
<path d="M334.5 552.5L1 616.5V676H1280.5V660L978.5 635L944.5 573L811.5 542L575 552.5L536 575L522 562L334.5 552.5Z" fill="#50032D"/>
<path d="M15.5 625L0 671.5L1 617L337 553.5L521.5 563L534.5 575L575.5 553.5L811 543L944 574L977 637L1280.5 662.5L974 651L927 590.5L807.5 571L554 575L549.5 589L815.5 624L540 594L531.5 585L337 575L15.5 625Z" fill="#780045"/>
<path d="M154.5 647L177.5 638L378.5 666.5H232.5L189.5 647L173 659L177.5 688L154.5 647Z" fill="#780045"/>
<path d="M626.5 638L705 643.5L767.5 638L927 664.5L752 654L718 671L638 648.5L544.5 671L626.5 638Z" fill="#780045"/>
</g>
<defs>
<filter id="filter0_f_574_2133" x="-9.5" y="-10" width="1300" height="696" filterUnits="userSpaceOnUse" color-interpolation-filters="sRGB">
<feFlood flood-opacity="0" result="BackgroundImageFix"/>
<feBlend mode="normal" in="SourceGraphic" in2="BackgroundImageFix" result="shape"/>
<feGaussianBlur stdDeviation="5" result="effect1_foregroundBlur_574_2133"/>
</filter>
<filter id="filter1_f_574_2133" x="-4.5" y="358" width="1290" height="323" filterUnits="userSpaceOnUse" color-interpolation-filters="sRGB">
<feFlood flood-opacity="0" result="BackgroundImageFix"/>
<feBlend mode="normal" in="SourceGraphic" in2="BackgroundImageFix" result="shape"/>
<feGaussianBlur stdDeviation="2.5" result="effect1_foregroundBlur_574_2133"/>
</filter>
<clipPath id="clip0_574_2133">
<rect width="1280" height="684" fill="white"/>
</clipPath>
</defs>
</svg>
